HIERARCHY
ROOT Model_Hips
{
	OFFSET 0.000000 96.915077 0.000000
	CHANNELS 6 Xposition Yposition Zposition Xrotation Yrotation Zrotation
	JOINT Model_Spine
	{
		OFFSET 0.000000 11.137703 -1.289900
		CHANNELS 3 Xrotation Yrotation Zrotation
		JOINT Model_Spine1
		{
			OFFSET 0.000000 12.993942 -1.504922
			CHANNELS 3 Xrotation Yrotation Zrotation
			JOINT Model_Spine2
			{
				OFFSET 0.000000 14.850220 -1.719911
				CHANNELS 3 Xrotation Yrotation Zrotation
				JOINT Model_Neck
				{
					OFFSET 0.000000 16.706543 -1.934903
					CHANNELS 3 Xrotation Yrotation Zrotation
					JOINT Model_Head
					{
						OFFSET 0.000000 10.471298 2.002100
						CHANNELS 3 Xrotation Yrotation Zrotation
						JOINT Model_HeadTop_End
						{
							OFFSET 0.000000 20.842606 3.985100
							CHANNELS 3 Xrotation Yrotation Zrotation
							End Site
							{
								OFFSET 0.000000 21.220154 0.000000
							}
						}
					}
				}
				JOINT Model_LeftShoulder
				{
					OFFSET 7.008500 14.768600 -1.919946
					CHANNELS 3 Xrotation Yrotation Zrotation
					JOINT Model_LeftArm
					{
						OFFSET 14.126271 -3.718048 0.029937
						CHANNELS 3 Xrotation Yrotation Zrotation
						JOINT Model_LeftForeArm
						{
							OFFSET 28.282801 0.000000 0.000000
							CHANNELS 3 Xrotation Yrotation Zrotation
							JOINT Model_LeftHand
							{
								OFFSET 26.204689 0.000000 0.000000
								CHANNELS 3 Xrotation Yrotation Zrotation
								End Site
								{
									OFFSET 26.204704 0.000000 0.000000
								}
							}
						}
					}
				}
				JOINT Model_RightShoulder
				{
					OFFSET -7.008500 14.768555 -1.949840
					CHANNELS 3 Xrotation Yrotation Zrotation
					JOINT Model_RightArm
					{
						OFFSET -14.126281 -3.718018 -0.029932
						CHANNELS 3 Xrotation Yrotation Zrotation
						JOINT Model_RightForeArm
						{
							OFFSET -28.283798 0.000000 -0.000001
							CHANNELS 3 Xrotation Yrotation Zrotation
							JOINT Model_RightHand
							{
								OFFSET -26.204193 0.000000 -0.000001
								CHANNELS 3 Xrotation Yrotation Zrotation
								End Site
								{
									OFFSET -26.204208 0.000000 -0.000001
								}
							}
						}
					}
				}
			}
		}
	}
	JOINT Model_LeftUpLeg
	{
		OFFSET 8.327700 -6.193199 -0.402800
		CHANNELS 3 Xrotation Yrotation Zrotation
		JOINT Model_LeftLeg
		{
			OFFSET 0.735802 -42.108742 -0.610721
			CHANNELS 3 Xrotation Yrotation Zrotation
			JOINT Model_LeftFoot
			{
				OFFSET -0.735806 -36.833748 -0.172876
				CHANNELS 3 Xrotation Yrotation Zrotation
				JOINT Model_LeftToeBase
				{
					OFFSET -0.565857 -11.977769 16.297714
					CHANNELS 3 Xrotation Yrotation Zrotation
					JOINT Model_LeftToe_End
					{
						OFFSET -0.111712 -0.312793 7.857784
						CHANNELS 3 Xrotation Yrotation Zrotation
						End Site
						{
							OFFSET -0.111712 -0.312793 7.857784
						}
					}
				}
			}
		}
	}
	JOINT Model_RightUpLeg
	{
		OFFSET -8.327700 -6.193199 -0.516500
		CHANNELS 3 Xrotation Yrotation Zrotation
		JOINT Model_RightLeg
		{
			OFFSET -0.735785 -42.108738 -0.434061
			CHANNELS 3 Xrotation Yrotation Zrotation
			JOINT Model_RightFoot
			{
				OFFSET 0.735776 -36.833748 -0.021630
				CHANNELS 3 Xrotation Yrotation Zrotation
				JOINT Model_RightToeBase
				{
					OFFSET 0.565817 -11.977745 15.903093
					CHANNELS 3 Xrotation Yrotation Zrotation
					JOINT Model_RightToe_End
					{
						OFFSET 0.111702 -0.312791 7.811342
						CHANNELS 3 Xrotation Yrotation Zrotation
						End Site
						{
							OFFSET 0.111702 -0.312791 7.811342
						}
					}
				}
			}
		}
	}
}
MOTION
Frames: 7
Frame Time: 0.016667
-8.672928 94.460556 62.036064 -3.206419 -46.983751 4.448208 2.293005 1.603000 -1.084299 4.611171 3.151259 -2.082017 4.611168 3.151244 -2.082015 -0.588752 -2.654937 0.786419 -0.588734 -2.654933 0.786427 0.000000 -0.000001 0.000000 0.452683 -4.436111 -20.411942 -1.684673 8.387310 -64.296778 -7.525440 -14.677651 -2.629699 -0.000004 -0.000000 0.000000 0.578010 3.825311 12.276655 -0.270724 3.988191 68.289092 27.924503 13.146073 -7.385785 -0.000001 -0.000000 0.000000 -21.099641 -3.553395 0.307300 51.478265 11.832874 0.087081 -1.891571 0.023289 -12.985758 -17.653249 1.062223 -2.319494 0.000001 -0.000002 0.000000 -0.032461 -7.383575 6.280757 19.685626 28.422425 1.465993 -8.602654 2.889508 -24.950826 -5.060935 -0.000013 0.000007 -0.000000 0.000000 0.000000 
-9.008249 94.762016 63.339252 -3.273688 -50.556930 4.590137 2.421626 1.741572 -1.095800 4.867203 3.421320 -2.033299 4.867204 3.421319 -2.033298 -0.574388 -2.430120 0.490934 -0.574393 -2.430103 0.490929 0.000001 0.000000 -0.000000 0.470443 -4.203421 -21.037249 -1.862651 8.490473 -63.953315 -8.711436 -14.977322 -3.021438 0.000001 0.000001 -0.000001 0.566200 4.743630 11.517884 -1.640434 5.614669 67.896554 29.011532 14.354392 -8.386824 -0.000000 -0.000000 0.000000 -21.684018 -4.127101 -0.043589 47.677002 11.973665 0.232585 -2.484047 -0.055985 -11.041101 -11.538396 1.044383 -3.439435 0.000000 0.000001 0.000000 0.796441 -7.459655 4.937525 19.929437 31.567662 1.691570 -8.369764 2.965498 -25.747395 -5.098706 0.000018 0.000000 0.000000 0.000001 -0.000000 
-9.371319 95.005623 64.629868 -3.281539 -53.764008 4.753003 2.556163 1.825863 -1.129910 5.134298 3.583288 -2.024385 5.134299 3.583285 -2.024385 -0.601793 -2.225985 0.253428 -0.601787 -2.225976 0.253428 0.000001 -0.000003 0.000000 0.489823 -3.984733 -21.537642 -2.145185 8.541225 -63.630534 -9.600445 -15.118731 -3.318647 -0.000000 0.000000 -0.000000 0.564739 5.682724 10.866983 -2.987161 7.193205 67.436001 30.300095 15.497131 -9.460241 -0.000001 -0.000001 -0.000001 -22.111896 -4.500724 -0.335959 43.236624 11.663327 0.437970 -3.293349 -0.130464 -9.021980 -3.438352 0.554937 -4.480953 -0.000000 0.000002 -0.000000 1.324065 -7.437224 3.638869 20.503425 34.097052 1.889110 -8.296518 3.111930 -26.599207 -5.218816 0.000005 0.000009 0.000000 -0.000001 0.000000 
-9.775826 95.211662 65.913773 -3.155065 -56.491265 4.993260 2.682843 1.851765 -1.189330 5.385494 3.630551 -2.064364 5.385496 3.630567 -2.064361 -0.668320 -2.055415 0.101687 -0.668321 -2.055406 0.101688 0.000001 0.000002 -0.000000 0.509039 -3.788735 -21.875373 -2.508380 8.538271 -63.353782 -10.207428 -15.140188 -3.522079 -0.000002 -0.000000 0.000000 0.570571 6.611853 10.353288 -4.262808 8.677154 66.908738 31.562096 16.631475 -10.560738 -0.000001 -0.000001 0.000001 -22.358039 -4.605812 -0.553830 37.894436 10.833302 0.639404 -4.389439 -0.160407 -7.472031 2.122673 0.000025 -0.000079 0.000000 0.000001 0.000000 1.610698 -7.292814 2.446945 21.265167 35.945097 2.049635 -8.299756 3.296963 -27.445891 -5.404521 0.000012 0.000003 0.000000 -0.000001 0.000000 
-10.234798 95.403915 67.193687 -2.867566 -58.680115 5.323385 2.791536 1.821703 -1.260610 5.600963 3.570712 -2.137772 5.600966 3.570705 -2.137773 -0.760416 -1.923335 0.037391 -0.760410 -1.923309 0.037369 -0.000000 0.000001 -0.000000 0.527119 -3.615853 -22.037706 -2.923868 8.497727 -63.138412 -10.532578 -15.098138 -3.633831 0.000002 0.000000 -0.000000 0.579504 7.498501 9.982504 -5.405384 10.033521 66.313671 32.577424 17.826019 -11.633021 -0.000001 0.000001 0.000002 -22.325226 -4.448551 -0.670394 31.894149 9.483642 0.753149 -5.603759 -0.132406 -6.702132 1.247606 -0.000022 -0.000084 0.000000 0.000002 -0.000000 1.766900 -7.053467 1.416521 22.045183 37.148747 2.170015 -8.277248 3.473079 -28.207701 -6.150243 -0.004051 0.633410 0.000000 -0.000001 0.000000 
-10.772787 95.592087 68.478622 -2.427019 -60.523017 5.721423 2.876644 1.746762 -1.318471 5.769629 3.423732 -2.207399 5.769628 3.423749 -2.207403 -0.856732 -1.826821 0.035986 -0.856732 -1.826840 0.035986 0.000000 0.000001 -0.000001 0.543505 -3.462607 -22.042235 -3.365684 8.449974 -62.988435 -10.554608 -15.051198 -3.652719 -0.000001 -0.000000 -0.000001 0.587857 8.312638 9.739038 -6.351537 11.244423 65.649306 33.179345 19.139155 -12.619210 -0.000001 -0.000001 -0.000000 -21.834894 -4.080301 -0.546010 27.196551 7.857935 0.741401 -6.710923 -0.059526 -6.603158 1.215513 0.000018 -0.000096 0.000000 -0.000000 -0.000001 1.882103 -6.786246 0.530402 22.758491 38.027170 2.263842 -8.128052 3.592297 -28.858109 -7.420822 -0.035723 1.879866 0.000000 0.000000 0.000000 
-11.361265 95.789963 69.759026 -1.804181 -62.561767 6.219602 2.936692 1.642188 -1.355630 5.887087 3.221018 -2.230744 5.887089 3.221024 -2.230745 -0.936382 -1.756919 0.060659 -0.936396 -1.756912 0.060657 0.000001 -0.000001 -0.000000 0.558523 -3.324328 -21.923077 -3.814308 8.431816 -62.897464 -10.234606 -15.045235 -3.571518 0.000002 0.000001 -0.000000 0.593967 9.030114 9.591895 -7.050682 12.304150 64.918496 33.282709 20.600510 -13.465682 0.000000 0.000001 -0.000000 -20.265957 -3.481752 -0.307268 20.504750 6.175643 0.564362 -6.735711 -0.042373 -7.071350 1.964463 -0.000015 -0.000106 0.000000 0.000000 0.000000 1.902356 -6.554684 -0.370479 23.433896 39.245936 2.368350 -7.698863 3.601955 -29.427399 -8.835056 -0.109460 3.290495 0.000000 0.000001 0.000000 
